<mxfile host="app.diagrams.net" modified="2024-10-29T00:53:01.944Z" agent="Mozilla/5.0 (Windows NT 10.0; Win64; x64) AppleWebKit/537.36 (KHTML, like Gecko) Chrome/130.0.0.0 Safari/537.36 Edg/130.0.0.0" version="23.1.5" etag="TKOqILK002T74Elvdrtz" type="github">
  <diagram name="Страница — 1" id="P2THrHk-ODk5Qqsg2-sG">
    <mxGraphModel>
      <root>
        <mxCell id="0" />
        <mxCell id="1" parent="0" />
      </root>
    </mxGraphModel>
  </diagram>
</mxfile>
